<svg width="179" height="48" viewBox="0 0 179 48" fill="none" xmlns="http://www.w3.org/2000/svg">
<path d="M73.5632 22.4843H69.3018C69.245 22.0468 69.1286 21.6519 68.9524 21.2996C68.7763 20.9474 68.5433 20.6462 68.2536 20.3962C67.9638 20.1462 67.62 19.9559 67.2223 19.8252C66.8303 19.6889 66.3956 19.6207 65.9183 19.6207C65.0717 19.6207 64.3416 19.8281 63.728 20.2428C63.12 20.6576 62.6513 21.257 62.3217 22.0411C61.9979 22.8252 61.8359 23.7741 61.8359 24.8877C61.8359 26.0468 62.0007 27.0184 62.3303 27.8025C62.6655 28.5809 63.1342 29.169 63.7365 29.5667C64.3445 29.9587 65.0632 30.1548 65.8928 30.1548C66.3587 30.1548 66.782 30.0951 67.1626 29.9758C67.549 29.8565 67.8871 29.6832 68.1768 29.4559C68.4723 29.2229 68.7138 28.9417 68.9013 28.6121C69.0945 28.2769 69.228 27.8991 69.3018 27.4786L73.5632 27.5042C73.4893 28.2769 73.2649 29.0383 72.8899 29.7883C72.5206 30.5383 72.0121 31.2229 71.3643 31.8423C70.7166 32.4559 69.9268 32.9445 68.995 33.3082C68.0689 33.6718 67.0064 33.8536 65.8075 33.8536C64.228 33.8536 62.8132 33.507 61.5632 32.8139C60.3189 32.115 59.3359 31.0979 58.6143 29.7627C57.8928 28.4275 57.532 26.8025 57.532 24.8877C57.532 22.9673 57.8984 21.3394 58.6314 20.0042C59.3643 18.669 60.3558 17.6548 61.6058 16.9616C62.8558 16.2684 64.2564 15.9218 65.8075 15.9218C66.8643 15.9218 67.8416 16.0695 68.7393 16.365C69.6371 16.6548 70.4268 17.0809 71.1087 17.6434C71.7905 18.2002 72.3445 18.8849 72.7706 19.6974C73.1967 20.5099 73.4609 21.4389 73.5632 22.4843ZM80.196 16.1604V33.615H75.9773V16.1604H80.196ZM82.2734 19.5866V16.1604H97.0263V19.5866H91.7337V33.615H87.5746V19.5866H82.2734ZM103.305 16.1604V33.615H99.0866V16.1604H103.305ZM105.792 18.0354V16.1604H118.883V18.0354H113.394V33.615H111.281V18.0354H105.792ZM122.145 33.615V16.1604H132.679V18.0354H124.259V23.9332H132.134V25.8082H124.259V31.74H132.815V33.615H122.145ZM150.534 21.615H148.42C148.295 21.007 148.077 20.4729 147.764 20.0127C147.457 19.5525 147.082 19.1661 146.639 18.8536C146.202 18.5354 145.716 18.2968 145.182 18.1377C144.648 17.9786 144.091 17.8991 143.511 17.8991C142.455 17.8991 141.497 18.1661 140.639 18.7002C139.787 19.2343 139.108 20.0212 138.602 21.061C138.102 22.1008 137.852 23.3764 137.852 24.8877C137.852 26.3991 138.102 27.6746 138.602 28.7144C139.108 29.7542 139.787 30.5411 140.639 31.0752C141.497 31.6093 142.455 31.8764 143.511 31.8764C144.091 31.8764 144.648 31.7968 145.182 31.6377C145.716 31.4786 146.202 31.2428 146.639 30.9303C147.082 30.6121 147.457 30.2229 147.764 29.7627C148.077 29.2968 148.295 28.7627 148.42 28.1604H150.534C150.375 29.0525 150.085 29.8508 149.665 30.5553C149.244 31.2599 148.722 31.8593 148.097 32.3536C147.472 32.8423 146.77 33.2144 145.991 33.4701C145.219 33.7258 144.392 33.8536 143.511 33.8536C142.023 33.8536 140.699 33.49 139.54 32.7627C138.381 32.0354 137.469 31.0014 136.804 29.6604C136.139 28.3195 135.807 26.7286 135.807 24.8877C135.807 23.0468 136.139 21.4559 136.804 20.115C137.469 18.7741 138.381 17.74 139.54 17.0127C140.699 16.2854 142.023 15.9218 143.511 15.9218C144.392 15.9218 145.219 16.0496 145.991 16.3053C146.77 16.561 147.472 16.936 148.097 17.4303C148.722 17.919 149.244 18.5156 149.665 19.2201C150.085 19.919 150.375 20.7173 150.534 21.615ZM153.95 33.615V16.1604H156.063V23.9332H165.37V16.1604H167.484V33.615H165.37V25.8082H156.063V33.615H153.95Z" fill="white"/>
<mask id="mask0_0_1" style="mask-type:alpha" maskUnits="userSpaceOnUse" x="0" y="0" width="48" height="48">
<circle cx="24" cy="24" r="24" fill="#8CC5E7"/>
</mask>
<g mask="url(#mask0_0_1)">
<circle cx="24" cy="23.7573" r="24" fill="#8CC5E7"/>
<rect x="5.8252" y="30.7053" width="6.06827" height="16.5057" fill="#3C81C0"/>
<rect x="11.8936" y="21.0569" width="6.06827" height="27.3072" fill="white"/>
<rect x="17.9619" y="-6.25049" width="6.06827" height="27.3072" fill="white"/>
<rect x="17.9619" y="21.0569" width="6.06827" height="10.8015" fill="#65AADC"/>
<rect x="24.0303" y="21.0569" width="6.06827" height="10.8015" fill="#3C81C0"/>
<rect x="24.0303" y="-6.25049" width="6.06827" height="27.3072" fill="#3C81C0"/>
<rect x="30.0986" y="21.0569" width="6.06827" height="27.3072" fill="white"/>
<rect x="36.167" y="30.7053" width="6.06827" height="16.5057" fill="#3C81C0"/>
<rect x="14.9277" y="31.8582" width="9.1024" height="16.5057" fill="#3C81C0"/>
<rect x="24.0303" y="31.8582" width="9.1024" height="16.5057" fill="#65AADC"/>
</g>
</svg>
