<svg width="254" height="80" viewBox="0 0 254 80" fill="none" xmlns="http://www.w3.org/2000/svg">
<path d="M229.049 27.6291C226.898 28.8681 226.805 36.7467 228.806 38.1593C230.573 39.4067 234.25 37.2459 235.781 36.3483C240.642 33.499 238.468 31.0057 234.419 28.903C233.079 28.207 230.56 26.7586 229.049 27.6291ZM209.906 62.3419V60.6396C211.4 61.7004 212.819 62.6473 214.672 62.9204C230.286 65.2215 230.256 37.8498 215.013 39.9738C213.017 40.2519 211.555 41.1819 209.906 42.2546V32.0407L203.106 32.5866L202.756 38.85V55.1922L203.106 61.7961L209.906 62.3419ZM242.25 40.5523H239.526V46.3402H242.25C242.25 50.5242 241.249 56.3564 243.884 59.9451C245.239 61.7899 251.533 64.5897 253.476 62.1365C254.395 60.9759 253.826 57.9728 253.826 56.5541C248.05 56.5016 249.4 50.5405 249.4 46.3402H253.826V40.5523H249.4C249.4 39.4093 249.801 37.2803 249.05 36.3318C248.266 35.3429 243.383 35.3429 242.6 36.3318C241.849 37.2803 242.25 39.4093 242.25 40.5523ZM98.9147 41.9142V40.5523H91.7649V62.342H98.9147C98.9147 58.3801 98.3862 53.9978 99.0186 50.0853C99.2811 48.4602 100.442 46.7862 102.318 47.1443C104.064 47.4777 104.649 49.2127 104.697 50.7662C104.818 54.6168 104.703 58.4893 104.703 62.342H111.852C111.852 58.4893 111.737 54.6168 111.858 50.7662C111.908 49.2127 112.491 47.4777 114.237 47.1443C116.082 46.7922 117.349 48.4509 117.576 50.0853C118.123 54.0307 117.64 58.3585 117.64 62.342H124.79C124.79 55.3732 127.515 41.4766 117.981 40.0212C115.019 39.5691 113.022 41.985 110.491 41.9152C109.41 41.8853 108.433 40.7796 107.426 40.4207C104.397 39.3411 101.456 40.1069 98.9147 41.9142ZM149.303 58.2564C147.995 57.3749 146.197 55.7653 144.537 55.7686C143.574 55.7705 142.482 56.0451 141.504 56.2897C138.697 56.9918 136.116 57.7516 134.663 53.49H150.325C150.325 49.5609 149.968 45.5833 146.861 42.7543C140.067 36.5692 129.045 40.9667 127.663 49.7449C125.841 61.3224 143.144 68.6905 149.303 58.2564ZM168.71 58.9373C168.4 62.8253 166.254 66.0487 161.9 65.2467C160.518 64.992 159.18 63.79 157.815 63.775C156.16 63.757 154.076 65.5901 152.708 66.4275C157.417 73.0558 170.759 73.0103 174.562 65.4062C177.883 58.7674 175.859 47.824 175.859 40.5524H168.71V42.5951C157.296 32.2091 144.365 53.5899 157.474 60.3005C159.212 61.1899 161.006 61.3421 162.922 61.3193C165.288 61.2911 166.962 60.5047 168.71 58.9373ZM179.605 44.2974C180.851 45.0667 182.219 46.4415 183.69 46.7096C186.761 47.2689 190.452 43.77 191.521 49.0639C187.777 49.0639 182.887 49.0972 180.018 51.8995C177.187 54.6649 177.733 60.1723 181.308 62.0018C184.721 63.7483 188.446 62.9888 191.521 60.9801V62.342H198.67C198.67 56.956 200.392 47.9511 197.319 43.281C193.967 38.187 182.251 38.7425 179.605 44.2974ZM229.653 40.5524V62.342H236.802V40.5523L229.653 40.5524ZM143.515 49.4043H134.663C135.606 44.7329 142.955 44.3836 143.515 49.4043ZM163.262 46.1169C168.935 45.5073 170.267 54.2563 164.623 55.1191C158.483 56.0579 157.151 46.7735 163.262 46.1169ZM214.671 46.8422C220.407 46.6091 221.139 55.5544 215.352 55.8582C209.225 56.1798 208.639 47.0874 214.671 46.8422ZM191.52 52.809C191.52 53.8341 191.735 55.181 191.314 56.1408C189.575 60.1133 182.275 55.5842 187.109 53.3887C187.631 53.1517 188.234 53.0504 188.796 52.9587C189.701 52.811 190.606 52.8114 191.52 52.809Z" fill="white"/>
<path d="M78.0216 24.8672H34.4423C29.951 24.8672 21.237 25.3787 22.1823 18.3012C23.0509 11.7972 31.5618 13.2914 36.1446 13.2914H81.0858C80.9203 5.51505 71.9548 3.58657 65.7649 2.32885C49.8302 -0.908905 33.7586 -0.56136 17.7596 2.08327C11.654 3.09262 1.3047 3.82841 0.158031 11.5889C-0.656814 17.1034 1.86043 23.4534 3.57368 28.6121C8.25475 42.707 15.1795 56.1299 24.9093 67.4249C29.0685 72.253 34.7936 79.8922 41.9325 79.3093C47.7854 78.8316 51.9078 71.981 55.0832 67.7653C61.8955 58.721 67.6713 49.0547 72.4996 38.826C74.5446 34.4935 77.2041 29.6178 78.0216 24.8672ZM56.4384 52.104C57.0488 54.8179 55.8287 57.8311 53.1678 58.9101C52.4526 59.2001 31.5281 60.3275 26.2712 59.1196C24.2247 58.6493 22.6621 56.8296 22.2056 54.8278C21.553 51.9652 23.1588 49.059 25.9308 48.1034C28.2816 47.2929 48.0504 47.3667 51.125 47.7409C53.5796 48.0396 55.8725 49.5878 56.4384 52.104ZM48.6259 35.081C49.142 37.7762 47.7208 40.8125 44.9967 41.668C43.9966 41.9821 21.5296 42.6302 16.7382 41.8142C14.4369 41.4224 12.7903 39.356 12.4255 37.1242C11.9811 34.4042 13.7091 31.551 16.3978 30.8453C17.6368 30.5202 40.0139 30.0498 44.3158 30.7285C46.4774 31.0695 48.22 32.9617 48.6259 35.081Z" fill="white"/>
<path d="M101.273 27.6328C101.188 27.339 101.069 27.0794 100.917 26.854C100.764 26.6246 100.576 26.4315 100.355 26.2745C100.138 26.1135 99.8883 25.9908 99.6065 25.9062C99.3288 25.8217 99.021 25.7795 98.6829 25.7795C98.051 25.7795 97.4956 25.9364 97.0167 26.2504C96.5418 26.5643 96.1715 27.0211 95.9059 27.6207C95.6403 28.2164 95.5075 28.9448 95.5075 29.8061C95.5075 30.6674 95.6383 31.3999 95.8999 32.0036C96.1615 32.6072 96.5317 33.0681 97.0107 33.386C97.4896 33.6999 98.055 33.8569 98.707 33.8569C99.2987 33.8569 99.8037 33.7522 100.222 33.543C100.645 33.3297 100.967 33.0298 101.188 32.6435C101.414 32.2571 101.526 31.8003 101.526 31.2731L102.058 31.3516H98.87V29.3835H104.044V30.9411C104.044 32.0277 103.814 32.9614 103.355 33.7422C102.897 34.5189 102.265 35.1186 101.46 35.5412C100.655 35.9598 99.7333 36.169 98.695 36.169C97.5359 36.169 96.5176 35.9135 95.6403 35.4023C94.7629 34.8872 94.0787 34.1567 93.5877 33.2109C93.1007 32.2611 92.8572 31.1342 92.8572 29.8303C92.8572 28.8281 93.0021 27.9347 93.2919 27.1499C93.5857 26.361 93.9962 25.6929 94.5234 25.1456C95.0507 24.5982 95.6644 24.1817 96.3647 23.896C97.065 23.6102 97.8236 23.4673 98.6406 23.4673C99.3409 23.4673 99.9929 23.57 100.597 23.7752C101.2 23.9764 101.736 24.2622 102.202 24.6325C102.673 25.0027 103.058 25.4434 103.355 25.9545C103.653 26.4616 103.844 27.0211 103.929 27.6328H101.273ZM113.644 23.6364H116.258V31.6655C116.258 32.567 116.043 33.3558 115.612 34.032C115.185 34.7081 114.588 35.2353 113.819 35.6136C113.05 35.9879 112.155 36.1751 111.133 36.1751C110.106 36.1751 109.209 35.9879 108.44 35.6136C107.671 35.2353 107.074 34.7081 106.647 34.032C106.22 33.3558 106.007 32.567 106.007 31.6655V23.6364H108.621V31.4421C108.621 31.913 108.724 32.3316 108.929 32.6978C109.138 33.064 109.432 33.3518 109.81 33.5611C110.189 33.7704 110.629 33.875 111.133 33.875C111.64 33.875 112.08 33.7704 112.455 33.5611C112.833 33.3518 113.125 33.064 113.33 32.6978C113.539 32.3316 113.644 31.913 113.644 31.4421V23.6364ZM120.54 36H117.738L122.007 23.6364H125.375L129.637 36H126.836L123.739 26.4616H123.643L120.54 36ZM120.365 31.1403H126.981V33.1808H120.365V31.1403ZM131.125 36V23.6364H136.003C136.937 23.6364 137.734 23.8034 138.394 24.1374C139.058 24.4674 139.563 24.9363 139.909 25.544C140.259 26.1477 140.434 26.8581 140.434 27.6751C140.434 28.4961 140.257 29.2024 139.903 29.794C139.549 30.3816 139.036 30.8324 138.364 31.1463C137.696 31.4602 136.887 31.6172 135.937 31.6172H132.671V29.5163H135.514C136.013 29.5163 136.428 29.4479 136.758 29.3111C137.088 29.1742 137.333 28.969 137.494 28.6953C137.659 28.4216 137.742 28.0816 137.742 27.6751C137.742 27.2646 137.659 26.9184 137.494 26.6367C137.333 26.355 137.086 26.1417 136.752 25.9968C136.422 25.8479 136.005 25.7734 135.502 25.7734H133.739V36H131.125ZM137.802 30.3736L140.875 36H137.989L134.983 30.3736H137.802ZM146.664 36H142.282V23.6364H146.701C147.944 23.6364 149.015 23.8839 149.912 24.3789C150.81 24.8699 151.5 25.5762 151.983 26.4979C152.47 27.4195 152.713 28.5223 152.713 29.8061C152.713 31.094 152.47 32.2008 151.983 33.1264C151.5 34.0521 150.806 34.7624 149.9 35.2575C148.999 35.7525 147.92 36 146.664 36ZM144.896 33.7603H146.556C147.328 33.7603 147.978 33.6235 148.506 33.3498C149.037 33.0721 149.435 32.6435 149.701 32.0639C149.971 31.4804 150.105 30.7277 150.105 29.8061C150.105 28.8925 149.971 28.146 149.701 27.5664C149.435 26.9869 149.039 26.5603 148.512 26.2866C147.984 26.0129 147.335 25.8761 146.562 25.8761H144.896V33.7603ZM157.264 23.6364V36H154.65V23.6364H157.264ZM161.545 36H158.744L163.012 23.6364H166.381L170.643 36H167.842L164.745 26.4616H164.648L161.545 36ZM161.37 31.1403H167.987V33.1808H161.37V31.1403ZM162.964 22.4169L161.539 22.3988C161.539 21.6301 161.729 21.0405 162.107 20.63C162.485 20.2195 162.95 20.0122 163.501 20.0082C163.783 20.0082 164.025 20.0545 164.226 20.147C164.427 20.2356 164.61 20.3402 164.775 20.4609C164.94 20.5817 165.097 20.6883 165.246 20.7809C165.395 20.8694 165.556 20.9137 165.729 20.9137C165.962 20.9097 166.14 20.8232 166.26 20.6541C166.385 20.4811 166.447 20.2557 166.447 19.978L167.854 20.0202C167.846 20.7809 167.653 21.3685 167.275 21.783C166.896 22.1935 166.433 22.4008 165.886 22.4048C165.588 22.4089 165.337 22.3646 165.131 22.272C164.93 22.1795 164.753 22.0748 164.6 21.9581C164.447 21.8374 164.298 21.7307 164.153 21.6381C164.009 21.5456 163.846 21.4993 163.664 21.4993C163.455 21.4993 163.286 21.5818 163.157 21.7468C163.029 21.9118 162.964 22.1352 162.964 22.4169ZM182.912 29.8182C182.912 31.1664 182.656 32.3134 182.145 33.2592C181.638 34.205 180.946 34.9274 180.068 35.4265C179.195 35.9215 178.213 36.169 177.122 36.169C176.024 36.169 175.037 35.9195 174.164 35.4205C173.291 34.9214 172.601 34.199 172.093 33.2532C171.586 32.3074 171.333 31.1624 171.333 29.8182C171.333 28.4699 171.586 27.3229 172.093 26.3771C172.601 25.4313 173.291 24.7109 174.164 24.2159C175.037 23.7169 176.024 23.4673 177.122 23.4673C178.213 23.4673 179.195 23.7169 180.068 24.2159C180.946 24.7109 181.638 25.4313 182.145 26.3771C182.656 27.3229 182.912 28.4699 182.912 29.8182ZM180.261 29.8182C180.261 28.9448 180.131 28.2083 179.869 27.6087C179.611 27.009 179.247 26.5542 178.776 26.2443C178.305 25.9344 177.754 25.7795 177.122 25.7795C176.49 25.7795 175.939 25.9344 175.468 26.2443C174.997 26.5542 174.631 27.009 174.369 27.6087C174.112 28.2083 173.983 28.9448 173.983 29.8182C173.983 30.6915 174.112 31.428 174.369 32.0277C174.631 32.6274 174.997 33.0821 175.468 33.392C175.939 33.7019 176.49 33.8569 177.122 33.8569C177.754 33.8569 178.305 33.7019 178.776 33.392C179.247 33.0821 179.611 32.6274 179.869 32.0277C180.131 31.428 180.261 30.6915 180.261 29.8182Z" fill="white"/>
</svg>
