<svg width="24" height="24" viewBox="0 0 24 24" fill="none" xmlns="http://www.w3.org/2000/svg">
<path d="M4.57207 19.4277C8.67437 23.53 15.3255 23.53 19.4278 19.4277C23.5301 15.3254 23.5301 8.67427 19.4278 4.57197C15.3255 0.469674 8.67437 0.469674 4.57207 4.57197C0.469771 8.67427 0.469772 15.3254 4.57207 19.4277Z" stroke="#BBD1CA" stroke-width="1.5" stroke-linecap="round" stroke-linejoin="round"/>
<path d="M8.81657 15.1832C10.5747 16.9413 13.4252 16.9413 15.1833 15.1832C16.9414 13.4251 16.9414 10.5746 15.1833 8.81646C13.4252 7.05833 10.5747 7.05833 8.81657 8.81646C7.05844 10.5746 7.05844 13.4251 8.81657 15.1832Z" stroke="#BBD1CA" stroke-width="1.5" stroke-linecap="round" stroke-linejoin="round"/>
<path d="M16.0624 10.0597L21.2676 7.0545" stroke="#BBD1CA" stroke-width="1.5" stroke-linecap="round" stroke-linejoin="round"/>
<path d="M13.9401 7.9374L16.9453 2.73221" stroke="#BBD1CA" stroke-width="1.5" stroke-linecap="round" stroke-linejoin="round"/>
<path d="M7.93755 13.94L2.73236 16.9452" stroke="#BBD1CA" stroke-width="1.5" stroke-linecap="round" stroke-linejoin="round"/>
<path d="M10.0598 16.0623L7.05463 21.2675" stroke="#BBD1CA" stroke-width="1.5" stroke-linecap="round" stroke-linejoin="round"/>
<path d="M13.9401 16.0623L16.9453 21.2675" stroke="#BBD1CA" stroke-width="1.5" stroke-linecap="round" stroke-linejoin="round"/>
<path d="M16.0624 13.94L21.2676 16.9452" stroke="#BBD1CA" stroke-width="1.5" stroke-linecap="round" stroke-linejoin="round"/>
<path d="M10.0598 7.9374L7.05463 2.73221" stroke="#BBD1CA" stroke-width="1.5" stroke-linecap="round" stroke-linejoin="round"/>
<path d="M7.93755 10.0597L2.73236 7.0545" stroke="#BBD1CA" stroke-width="1.5" stroke-linecap="round" stroke-linejoin="round"/>
</svg>
