<svg xmlns="http://www.w3.org/2000/svg" viewBox="0 0 384 512">
  <!-- Map Marker -->
  <path fill="#ffffff" d="M384 192c0 87.4-117 243-168.3 307.2c-12.3 15.3-35.1 15.3-47.4 0C117 435 0 279.4 0 192C0 86 86 0 192 0S384 86 384 192z"/>
  <!-- Video Camera -->
  <path fill="#2d3343" transform="translate(112, 160) scale(0.5)" d="M0 128C0 92.7 28.7 64 64 64H320c35.3 0 64 28.7 64 64V384c0 35.3-28.7 64-64 64H64c-35.3 0-64-28.7-64-64V128zM559.1 99.8c10.4 5.6 16.9 16.4 16.9 28.2V384c0 11.8-6.5 22.6-16.9 28.2s-23 5-32.9-1.6l-96-64L416 337.1V320 192 174.9l14.2-9.5 96-64c9.8-6.5 22.4-7.2 32.9-1.6z"/>
</svg>
