{
  "accessors": [
    {
      "bufferView": 2,
      "componentType": 5126,
      "count": 9562,
      "max": [
        251.1451416015625,
        163.35533142089844,
        478.817138671875
      ],
      "min": [
        -251.1451416015625,
        -163.35533142089844,
        -12.795171737670898
      ],
      "type": "VEC3"
    },
    {
      "bufferView": 2,
      "byteOffset": 114744,
      "componentType": 5126,
      "count": 9562,
      "max": [
        1.0,
        1.0,
        1.0
      ],
      "min": [
        -1.0,
        -1.0,
        -1.0
      ],
      "type": "VEC3"
    },
    {
      "bufferView": 3,
      "componentType": 5126,
      "count": 9562,
      "max": [
        1.0,
        1.0,
        1.0,
        1.0
      ],
      "min": [
        -1.0,
        -1.0,
        -1.0,
        -1.0
      ],
      "type": "VEC4"
    },
    {
      "bufferView": 1,
      "componentType": 5126,
      "count": 9562,
      "max": [
        1.0781300067901611,
        1.6191380023956299
      ],
      "min": [
        0.00021399999968707561,
        -0.5629889965057373
      ],
      "type": "VEC2"
    },
    {
      "bufferView": 0,
      "componentType": 5125,
      "count": 18414,
      "type": "SCALAR"
    }
  ],
  "asset": {
    "extras": {
      "author": "CHANO (https://sketchfab.com/pedroribeiro.1104)",
      "license": "CC-BY-4.0 (http://creativecommons.org/licenses/by/4.0/)",
      "source": "https://sketchfab.com/3d-models/half-life-alyx-skybox-building-3-2efb2bd5d137451486c9285bbf91228f",
      "title": "Half-Life Alyx Skybox building 3"
    },
    "generator": "Sketchfab-16.16.0",
    "version": "2.0"
  },
  "bufferViews": [
    {
      "buffer": 0,
      "byteLength": 73656,
      "name": "floatBufferViews",
      "target": 34963
    },
    {
      "buffer": 0,
      "byteLength": 76496,
      "byteOffset": 73656,
      "byteStride": 8,
      "name": "floatBufferViews",
      "target": 34962
    },
    {
      "buffer": 0,
      "byteLength": 229488,
      "byteOffset": 150152,
      "byteStride": 12,
      "name": "floatBufferViews",
      "target": 34962
    },
    {
      "buffer": 0,
      "byteLength": 152992,
      "byteOffset": 379640,
      "byteStride": 16,
      "name": "floatBufferViews",
      "target": 34962
    }
  ],
  "buffers": [
    {
      "byteLength": 532632,
      "uri": "scene.bin"
    }
  ],
  "images": [
    {
      "uri": "textures/house_22_baseColor.jpeg"
    },
    {
      "uri": "textures/house_22_normal.png"
    }
  ],
  "materials": [
    {
      "doubleSided": true,
      "name": "house_22",
      "normalTexture": {
        "index": 1
      },
      "pbrMetallicRoughness": {
        "baseColorTexture": {
          "index": 0
        },
        "metallicFactor": 0.0,
        "roughnessFactor": 0.9559854314365357
      }
    }
  ],
  "meshes": [
    {
      "name": "house_HL_ALEX:house_22_house_22_0",
      "primitives": [
        {
          "attributes": {
            "NORMAL": 1,
            "POSITION": 0,
            "TANGENT": 2,
            "TEXCOORD_0": 3
          },
          "indices": 4,
          "material": 0,
          "mode": 4
        }
      ]
    }
  ],
  "nodes": [
    {
      "children": [
        1
      ],
      "matrix": [
        1.0,
        0.0,
        0.0,
        0.0,
        0.0,
        2.220446049250313e-16,
        -1.0,
        0.0,
        0.0,
        1.0,
        2.220446049250313e-16,
        0.0,
        0.0,
        0.0,
        0.0,
        1.0
      ],
      "name": "Sketchfab_model"
    },
    {
      "children": [
        2
      ],
      "matrix": [
        0.009999999776482582,
        0.0,
        0.0,
        0.0,
        0.0,
        0.0,
        0.009999999776482582,
        0.0,
        0.0,
        -0.009999999776482582,
        0.0,
        0.0,
        0.0,
        0.0,
        0.0,
        1.0
      ],
      "name": "house_22.fbx"
    },
    {
      "children": [
        3
      ],
      "name": "RootNode"
    },
    {
      "children": [
        4
      ],
      "matrix": [
        20.859230041503906,
        0.0,
        0.0,
        0.0,
        0.0,
        20.859230041503906,
        0.0,
        0.0,
        0.0,
        0.0,
        20.859230041503906,
        0.0,
        0.0,
        0.0,
        0.0,
        1.0
      ],
      "name": "house_HL_ALEX:house_HL_ALEX"
    },
    {
      "children": [
        5
      ],
      "matrix": [
        0.0052121588960289955,
        0.0,
        0.0,
        0.0,
        -0.0,
        -8.487280238475563e-10,
        -0.005212158896028927,
        0.0,
        0.0,
        0.005212158896028927,
        -8.487280238475563e-10,
        0.0,
        -0.2530784010887146,
        0.05506609007716179,
        0.812983512878418,
        1.0
      ],
      "name": "house_HL_ALEX:house_22"
    },
    {
      "mesh": 0,
      "name": "house_HL_ALEX:house_22_house_22_0"
    }
  ],
  "samplers": [
    {
      "magFilter": 9729,
      "minFilter": 9987,
      "wrapS": 10497,
      "wrapT": 10497
    }
  ],
  "scene": 0,
  "scenes": [
    {
      "name": "Sketchfab_Scene",
      "nodes": [
        0
      ]
    }
  ],
  "textures": [
    {
      "sampler": 0,
      "source": 0
    },
    {
      "sampler": 0,
      "source": 1
    }
  ]
}
